<svg xmlns="http://www.w3.org/2000/svg" width="866" height="332" viewBox="0 0 866 332">
<g>

<path d="M 41.29 258.03 C34.70,254.69 31.27,251.30 27.72,244.62 C26.00,241.39 25.53,238.78 25.52,232.50 C25.50,225.49 25.87,223.84 28.45,219.17 C33.44,210.16 41.35,205.06 51.58,204.24 C59.61,203.60 66.43,205.86 72.46,211.18 C79.68,217.53 81.49,221.79 81.49,232.50 C81.49,242.96 79.74,247.29 73.13,253.26 C67.05,258.76 63.34,260.29 55.00,260.75 C48.14,261.13 46.97,260.90 41.29,258.03 ZM 97.67 260.33 C95.07,257.74 98.78,247.25 105.62,237.87 C107.48,235.32 109.00,232.90 109.00,232.50 C109.00,232.10 107.47,229.68 105.60,227.13 C100.13,219.67 97.00,213.03 97.00,208.87 C97.00,205.63 97.38,204.94 99.48,204.42 C104.00,203.28 115.18,208.51 122.72,215.30 L 124.94 217.29 L 130.22 213.21 C136.53,208.35 145.45,204.02 149.21,204.01 C156.34,203.98 154.45,213.90 144.89,226.71 C142.75,229.57 141.00,232.18 141.00,232.50 C141.00,232.82 142.77,235.43 144.93,238.29 C149.36,244.16 153.98,253.46 153.99,256.55 C154.02,263.52 144.22,261.81 131.50,252.61 C128.75,250.63 125.96,249.00 125.30,249.00 C124.64,249.00 121.26,250.98 117.80,253.39 C108.53,259.85 100.09,262.76 97.67,260.33 ZM 169.20 259.80 C166.25,256.85 169.66,247.56 177.41,237.41 C181.20,232.45 181.20,232.47 176.78,226.80 C172.76,221.62 168.03,211.99 168.01,208.95 C167.97,201.29 177.91,202.98 190.95,212.85 C195.57,216.34 196.67,216.78 198.11,215.74 C210.96,206.41 217.78,203.23 222.41,204.39 C227.46,205.65 225.11,214.48 216.54,226.50 L 212.11 232.70 L 216.20 238.10 C221.68,245.34 225.21,253.17 224.81,257.23 C224.55,259.99 224.05,260.55 221.67,260.82 C217.82,261.27 211.79,258.71 204.22,253.42 C200.75,250.99 197.25,249.00 196.46,249.00 C195.67,249.00 192.88,250.64 190.26,252.65 C181.28,259.54 172.06,262.66 169.20,259.80 ZM 483.73 212.97 C473.98,210.52 466.49,203.79 463.28,194.61 C461.93,190.72 461.50,186.40 461.50,176.50 C461.50,160.60 463.14,154.91 469.74,147.85 C475.36,141.83 481.56,139.56 492.07,139.67 C501.07,139.76 506.84,142.00 511.95,147.37 C513.84,149.37 515.75,151.00 516.20,151.00 C516.64,151.00 517.00,148.98 517.00,146.50 L 517.00 142.00 L 524.50 142.00 L 532.00 142.00 L 532.00 176.38 L 532.00 210.77 L 529.75 211.37 C525.96,212.39 519.47,212.07 518.20,210.80 C517.54,210.14 517.00,207.89 517.00,205.80 C517.00,203.71 516.63,202.00 516.18,202.00 C515.73,202.00 513.27,204.00 510.72,206.44 C508.17,208.88 504.38,211.38 502.29,212.00 C496.81,213.61 488.09,214.06 483.73,212.97 ZM 507.49 199.65 C514.04,196.07 516.38,190.62 516.83,177.93 C517.16,168.64 516.93,166.72 514.93,162.06 C513.40,158.51 511.34,155.81 508.67,153.88 C505.15,151.32 503.87,151.00 497.30,151.00 C487.17,151.00 482.88,153.50 478.38,162.00 C476.91,164.78 476.53,167.75 476.52,176.50 C476.50,186.00 476.81,188.07 478.74,191.69 C484.30,202.09 496.73,205.53 507.49,199.65 ZM 692.50 212.44 C683.39,210.14 676.35,204.82 672.06,197.00 L 668.50 190.50 L 668.51 176.50 C668.53,164.32 668.81,161.90 670.67,157.90 C675.42,147.66 683.40,141.93 695.62,139.98 C713.52,137.12 728.66,143.34 734.09,155.77 C736.34,160.95 738.27,171.42 737.83,176.09 L 737.50 179.50 L 710.50 180.00 L 683.50 180.50 L 683.71 184.91 C683.99,191.04 688.31,197.72 693.91,200.67 C699.01,203.37 707.17,203.79 712.33,201.64 C716.08,200.07 720.72,194.96 721.61,191.42 C722.18,189.15 722.65,189.00 729.05,189.00 C732.81,189.00 736.17,189.46 736.51,190.02 C736.86,190.58 736.41,193.27 735.50,195.99 C733.36,202.44 725.89,209.34 718.65,211.56 C711.16,213.85 699.64,214.24 692.50,212.44 ZM 722.00 166.71 C722.00,162.05 718.10,154.91 714.10,152.26 C707.71,148.01 694.61,149.57 689.07,155.24 C686.05,158.33 682.48,167.35 683.58,169.12 C683.87,169.61 692.64,170.00 703.06,170.00 L 722.00 170.00 L 722.00 166.71 ZM 282.75 211.31 C281.11,210.88 281.00,207.71 281.00,162.43 L 281.00 114.00 L 313.55 114.00 L 346.10 114.00 L 345.80 119.75 L 345.50 125.50 L 321.25 125.77 L 297.00 126.04 L 297.00 140.91 C297.00,153.55 297.24,155.88 298.58,156.39 C299.45,156.73 308.90,157.00 319.58,157.00 L 339.00 157.00 L 339.00 162.39 C339.00,166.39 338.59,167.94 337.42,168.39 C336.55,168.73 327.10,169.00 316.42,169.00 L 297.00 169.00 L 297.00 189.30 C297.00,203.76 296.65,209.95 295.80,210.80 C294.65,211.95 286.42,212.27 282.75,211.31 ZM 357.25 211.34 C356.28,210.95 356.00,203.01 356.00,176.37 L 356.00 141.91 L 363.25 142.21 L 370.50 142.50 L 370.76 175.88 C370.95,199.68 370.70,209.66 369.89,210.63 C368.79,211.96 360.02,212.45 357.25,211.34 ZM 386.75 211.31 C385.13,210.89 385.00,208.37 385.00,176.37 L 385.00 141.89 L 389.69 142.20 L 394.38 142.50 L 395.59 147.28 C397.72,155.64 397.72,155.64 401.26,150.37 C406.05,143.24 413.34,139.77 423.68,139.70 C433.85,139.64 438.81,141.14 443.34,145.67 C449.34,151.68 450.00,155.56 450.00,185.07 C450.00,213.83 450.51,212.00 442.50,212.00 C434.53,212.00 435.00,213.52 434.99,187.64 C434.99,174.91 434.53,162.85 433.97,160.83 C433.40,158.77 431.41,155.81 429.44,154.08 C426.29,151.31 425.27,151.00 419.42,151.00 C415.75,151.00 411.72,151.62 410.20,152.41 C406.15,154.53 402.08,159.23 400.98,163.07 C400.44,164.95 400.00,176.45 400.00,188.63 C400.00,210.74 400.00,210.77 397.75,211.37 C395.24,212.04 389.43,212.01 386.75,211.31 ZM 548.25 211.34 C547.28,210.95 547.00,203.01 547.00,176.42 L 547.00 142.00 L 551.46 142.00 C555.87,142.00 555.94,142.05 557.02,146.25 C559.46,155.67 559.28,155.58 563.51,149.69 C567.82,143.71 572.79,141.51 582.00,141.50 L 589.50 141.50 L 589.50 147.50 L 589.50 153.50 L 580.69 154.10 C570.68,154.79 567.91,156.22 564.27,162.59 C562.15,166.30 562.03,167.60 562.02,188.05 C562.00,203.46 561.66,209.94 560.80,210.80 C559.63,211.97 550.75,212.35 548.25,211.34 ZM 601.25 211.34 C600.27,210.94 600.00,200.21 600.00,162.42 L 600.00 114.00 L 607.50 114.00 L 615.00 114.00 L 615.00 141.50 C615.00,163.32 615.27,169.00 616.29,169.00 C617.00,169.00 624.09,162.93 632.04,155.50 L 646.49 142.00 L 653.74 142.00 C659.30,142.00 661.00,142.33 661.00,143.40 C661.00,144.17 656.10,149.24 650.10,154.65 C644.11,160.07 638.98,164.98 638.71,165.57 C638.43,166.16 644.27,176.26 651.69,188.01 C664.31,208.00 665.07,209.48 663.35,210.74 C662.16,211.60 659.37,211.98 655.50,211.79 L 649.50 211.50 L 645.70 205.50 C643.61,202.20 638.86,194.58 635.15,188.57 C631.44,182.55 627.96,177.49 627.41,177.30 C626.87,177.12 623.86,179.27 620.71,182.07 L 615.00 187.16 L 615.00 198.97 C615.00,208.82 614.74,210.89 613.42,211.39 C611.56,212.11 603.06,212.07 601.25,211.34 ZM 750.25 211.34 C749.28,210.95 749.00,203.01 749.00,176.42 L 749.00 142.00 L 756.50 142.00 L 764.00 142.00 L 764.00 175.96 C764.00,208.52 763.92,209.97 762.07,210.96 C760.10,212.02 752.53,212.26 750.25,211.34 ZM 779.24 210.84 C778.30,209.90 778.00,201.38 778.00,175.80 L 778.00 142.00 L 782.89 142.00 C787.71,142.00 787.79,142.05 788.45,145.61 C788.83,147.59 789.55,150.31 790.05,151.64 C790.97,154.04 791.06,153.99 796.74,148.22 C803.47,141.38 808.37,139.54 819.70,139.63 C831.57,139.71 839.33,145.07 842.02,155.07 C842.62,157.30 842.92,169.59 842.77,185.17 L 842.50 211.50 L 837.28 211.80 C827.62,212.36 828.00,213.40 827.98,186.21 C827.96,165.08 827.75,162.04 826.06,158.32 C823.69,153.10 819.83,151.00 812.61,151.00 C806.29,151.00 802.48,152.22 799.15,155.32 C793.83,160.27 793.54,161.81 793.00,187.50 L 792.50 211.50 L 786.49 211.79 C782.68,211.98 780.03,211.63 779.24,210.84 ZM 44.67 188.33 C30.52,183.44 22.17,167.25 26.36,152.84 C29.82,140.92 40.70,132.99 53.50,133.05 C65.92,133.11 73.73,137.76 78.94,148.20 C86.11,162.54 80.57,179.66 66.55,186.52 C59.60,189.92 51.26,190.61 44.67,188.33 ZM 103.88 188.55 C98.19,185.34 95.57,174.70 96.26,157.60 C96.80,144.40 98.74,137.00 102.32,134.49 C103.49,133.67 106.51,133.00 109.04,133.00 C122.87,133.00 149.48,147.72 153.64,157.67 C156.15,163.70 151.60,170.69 140.41,178.00 C127.41,186.48 109.43,191.68 103.88,188.55 ZM 169.75 188.92 C168.72,188.32 168.00,186.71 168.00,185.02 C168.00,181.62 173.42,170.85 178.00,165.15 L 181.25 161.10 L 178.07 157.09 C172.92,150.59 167.86,140.07 168.20,136.58 C168.48,133.73 168.82,133.48 172.69,133.20 C177.44,132.85 180.52,134.19 189.80,140.63 C193.26,143.03 196.35,145.00 196.66,145.00 C196.98,145.00 199.32,143.48 201.87,141.62 C209.86,135.79 216.45,132.84 220.67,133.19 C223.44,133.41 224.58,134.01 224.83,135.35 C225.57,139.25 223.77,143.99 218.48,152.02 C215.47,156.61 213.00,160.78 213.00,161.30 C213.00,161.81 214.55,164.34 216.45,166.93 C224.24,177.55 226.94,186.77 222.98,189.25 C220.39,190.87 213.45,188.25 204.93,182.45 C200.53,179.45 196.70,177.00 196.42,177.00 C196.14,177.00 193.57,178.77 190.71,180.93 C185.24,185.05 175.56,189.99 173.00,189.96 C172.18,189.95 170.71,189.48 169.75,188.92 ZM 357.34 130.82 C353.62,129.02 352.74,120.78 355.85,116.94 C357.33,115.11 358.74,114.64 362.94,114.58 C367.29,114.51 368.50,114.90 370.09,116.86 C373.11,120.59 372.26,128.79 368.60,131.23 C367.00,132.30 359.86,132.04 357.34,130.82 ZM 750.22 130.44 C748.36,129.14 748.00,127.95 748.00,123.07 C748.00,115.83 749.29,114.57 756.72,114.57 C763.41,114.57 765.00,116.22 765.00,123.19 C765.00,129.50 762.65,132.00 756.72,132.00 C754.37,132.00 751.44,131.30 750.22,130.44 ZM 189.50 117.85 C178.25,116.80 174.51,114.75 170.66,107.50 C168.81,104.00 168.54,101.81 168.52,90.00 C168.50,77.58 168.70,76.10 171.00,71.50 C173.00,67.50 174.50,66.00 178.50,64.00 C183.06,61.72 184.63,61.50 196.50,61.50 C208.37,61.50 209.94,61.72 214.50,64.00 C222.18,67.84 224.36,72.56 224.85,86.44 C225.47,104.07 222.47,112.23 214.09,115.74 C209.42,117.69 198.15,118.65 189.50,117.85 ZM 41.42 115.12 C15.40,102.81 22.12,64.36 50.81,61.36 C59.93,60.41 67.04,62.91 73.48,69.35 C80.11,75.98 82.46,82.36 81.77,91.88 C80.32,112.15 59.94,123.89 41.42,115.12 ZM 109.50 116.55 C104.48,114.71 99.47,109.36 98.08,104.34 C96.71,99.43 96.69,79.65 98.04,74.78 C100.80,64.85 107.86,61.50 126.00,61.50 C137.17,61.50 139.02,61.76 143.37,63.90 C147.48,65.92 148.66,67.18 150.87,71.90 C153.26,77.00 153.49,78.61 153.50,90.00 C153.50,101.34 153.27,102.96 151.00,107.50 C149.15,111.19 147.32,113.15 144.00,115.00 C139.94,117.26 138.23,117.52 126.50,117.75 C117.04,117.94 112.41,117.61 109.50,116.55 Z" fill="#000000" data-index="1"/>
</g>
</svg>